<?xml version="1.0"?>
<svg xmlns="http://www.w3.org/2000/svg" id="Flat" height="512px" viewBox="0 0 512 512" width="512px" class=""><g><path d="m296 296h-240a32 32 0 0 0 -32 32v160h304v-160a32 32 0 0 0 -32-32z" fill="#eba72e" data-original="#EBA72E" class="" style="fill:#E2CDFB" data-old_color="#eba72e"/><path d="m168 304h16v104h-16z" fill="#e09f2c" data-original="#E09F2C" class="active-path" style="fill:#622D94" data-old_color="#e09f2c"/><path d="m469.4 248a13.4 13.4 0 0 0 -13.4 13.4 13.4 13.4 0 1 0 -26.119 4.238l10.119 38.362h32l10.119-38.358a13.4 13.4 0 0 0 -12.719-17.642z" fill="#20754d" data-original="#20754D" class=""/><circle cx="392" cy="360" fill="#d9db5e" r="32" data-original="#D9DB5E" class=""/><path d="m487.44 333.9-3.39 18.1-3 16-8.05 42.95a16 16 0 0 1 -15.73 13.05h-5.44a16 16 0 0 1 -15.73-13.05l-14.06-74.95-.39-2.1a31.959 31.959 0 0 1 31.46-37.9h2.88a32 32 0 0 1 31.45 37.9z" fill="#f78a25" data-original="#F78A25" class=""/><path d="m454.55 328a8 8 0 0 1 -8 8h-24.51l-.39-2.1a31.936 31.936 0 0 1 .45-13.9h24.45a8 8 0 0 1 8 8z" fill="#c76f1e" data-original="#C76F1E" class=""/><path d="m484.05 352-3 16h-26.5a8 8 0 1 1 0-16z" fill="#c76f1e" data-original="#C76F1E" class=""/><path d="m72 224s-16 49.386-48 32.924c0 0 24 57.617 112 32.924v-65.848z" fill="#95573a" data-original="#95573A" class=""/><path d="m280 224s16 49.386 48 32.924c0 0-24 57.617-112 32.924v-65.848z" fill="#95573a" data-original="#95573A" class=""/><path d="m56 408h240v80h-240z" fill="#a36f58" data-original="#A36F58" class="" style="fill:#6B33A0" data-old_color="#a36f58"/><path d="m264 296h32v112h-32z" fill="#a36f58" data-original="#A36F58" class="" style="fill:#6B33A0" data-old_color="#a36f58"/><path d="m56 296h32v112h-32z" fill="#a36f58" data-original="#A36F58" class="" style="fill:#6B33A0" data-old_color="#a36f58"/><path d="m184 296-64 48v-48z" fill="#f7b030" data-original="#F7B030" class="" style="fill:#622D94" data-old_color="#f7b030"/><path d="m168 296 64 48v-48z" fill="#f7b030" data-original="#F7B030" class="" style="fill:#622D94" data-old_color="#f7b030"/><circle cx="72" cy="208" fill="#f0c6a4" r="32" data-original="#F0C6A4" class=""/><circle cx="280" cy="208" fill="#f0c6a4" r="32" data-original="#F0C6A4" class=""/><rect fill="#f7cca9" height="224" rx="104" width="208" x="72" y="80" data-original="#F7CCA9" class=""/><g fill="#452d23"><circle cx="216" cy="200" r="8" data-original="#452D23" class=""/><circle cx="136" cy="200" r="8" data-original="#452D23" class=""/><path d="m176 264c-34.932 0-46.893-27.742-47.385-28.923a8 8 0 0 1 14.77-6.154c.315.724 8.585 19.077 32.615 19.077 24.385 0 32.536-18.886 32.615-19.077a8 8 0 1 1 14.77 6.154c-.492 1.181-12.453 28.923-47.385 28.923z" data-original="#452D23" class=""/><path d="m184 224h-16a8 8 0 0 1 -8-8v-16a8 8 0 0 1 16 0v8h8a8 8 0 0 1 0 16z" data-original="#452D23" class=""/></g><path d="m128 456h96v32h-96z" fill="#d49073" data-original="#D49073" class="" style="fill:#E2CCFD" data-old_color="#d49073"/><path d="m280 136h-208l13.611-95.279c1.389-9.683 8.01-16.721 15.742-16.721h149.294c7.732 0 14.358 7.038 15.742 16.721z" fill="#d49073" data-original="#D49073" class="" style="fill:#E2CCFD" data-old_color="#d49073"/><path d="m280 136h-208l4.57-32h198.86z" fill="#d13330" data-original="#D13330" class="" style="fill:#622D94" data-old_color="#d13330"/><path d="m72.985 136h206.03a32 32 0 0 1 31.045 24.239l1.94 7.761h-272l1.94-7.761a32 32 0 0 1 31.045-24.239z" fill="#d49073" data-original="#D49073" class="" style="fill:#E2CCFD" data-old_color="#d49073"/><circle cx="328" cy="360" fill="#764f85" r="32" data-original="#764F85" class=""/><circle cx="296" cy="384" fill="#ffb632" r="32" data-original="#FFB632" class=""/><circle cx="360" cy="384" fill="#fa730a" r="32" data-original="#FA730A" class=""/><path d="m488 392-5.33 32h-213.34l-5.33-32z" fill="none"/><circle cx="424" cy="384" fill="#d13330" r="32" data-original="#D13330" class="" style="fill:#622D94" data-old_color="#d13330"/><path d="m472 488h-192l-16-96h224z" fill="#b37a60" data-original="#B37A60" class="" style="fill:#B37A60"/><path d="m482.67 424-10.67 64h-192l-10.67-64z" fill="#95573a" data-original="#95573A" class=""/></g> </svg>
